<svg width="53" height="53" viewBox="0 0 53 53" fill="none" xmlns="http://www.w3.org/2000/svg">
<g clip-path="url(#clip0_13_17)">
<path d="M5.02943 0.0231514C5.01103 0.0478477 5 0.349121 5 0.694843V1.32209L5.2869 1.35666C5.76874 1.41099 6.03725 1.48013 6.37564 1.63324C7.31358 2.05305 7.90944 2.94205 8.18899 4.32988L8.2883 4.8139L8.31037 8.8885C8.33611 12.6964 8.34347 13.0125 8.41703 13.7237C8.88416 18.1934 10.2341 21.5568 12.5771 24.0855C15.115 26.8217 18.7932 28.4565 22.9238 28.6738L23.5748 28.7084L23.5712 33.0101C23.5675 35.3759 23.5564 39.0998 23.5417 41.2878L23.516 45.2636L23.402 45.7229C23.1224 46.8391 22.5854 47.6244 21.7321 48.1726C21.3495 48.4195 20.8898 48.6122 20.4116 48.7258C19.9371 48.8344 19.0764 48.9036 18.6534 48.869L18.2746 48.8344L18.2856 49.4172L18.2966 50L18.6828 49.9901C24.1633 49.8666 27.8415 49.8666 33.322 49.9901L33.7082 50L33.7193 49.4172L33.7303 48.8344L33.3514 48.869C32.9248 48.9036 32.0678 48.8344 31.5822 48.7208C31.0967 48.6023 30.6553 48.4195 30.2728 48.1726C29.4195 47.6244 28.8972 46.8638 28.6066 45.7328L28.4852 45.2636L28.4631 41.1149C28.4484 38.8331 28.4374 35.1092 28.4337 32.8373L28.43 28.7084L29.0848 28.6738C32.7482 28.4812 36.088 27.1625 38.5634 24.94C39.5051 24.0905 40.5166 22.8557 41.1529 21.7791C42.4844 19.522 43.2421 17.0081 43.5915 13.7039C43.6614 13.0174 43.6688 12.6668 43.6945 8.8885L43.7166 4.8139L43.8159 4.32988C44.1212 2.81364 44.8053 1.895 45.9198 1.50977C46.1037 1.44556 46.7731 1.33197 46.9534 1.33197C46.9975 1.33197 47.0049 1.21837 46.9975 0.675091L46.9865 0.0231514L46.3612 0.0280914C44.1028 0.0379715 42.0577 1.09983 40.66 2.98156C39.8582 4.06318 39.3322 5.2584 38.9313 6.88824C38.6223 8.14272 38.4862 9.34288 38.4347 11.2147C38.4163 11.9111 38.3722 12.8001 38.3427 13.1903C38.0632 16.5932 37.2871 19.5022 36.0696 21.6803C35.7607 22.2334 35.1096 23.1471 34.7197 23.5719C33.5942 24.7918 32.1891 25.5672 30.5818 25.8537C30.0889 25.9426 28.7758 26.0117 28.5661 25.9574L28.43 25.9228V17.2698C28.4337 7.93529 28.4558 6.1721 28.5735 5.47077C28.8383 3.91008 29.5813 2.79882 30.7032 2.29012C31.4498 1.94933 32.2627 1.82586 33.1308 1.9197C33.4287 1.94933 33.7082 1.98884 33.7561 2.00366C33.837 2.03329 33.837 2.03329 33.837 1.38629V0.739296H26.0024H18.1679V1.38629C18.1679 2.03329 18.1679 2.03329 18.2525 2.00366C18.2966 1.98884 18.5762 1.94933 18.8741 1.9197C19.7422 1.82586 20.555 1.94933 21.3017 2.29012C22.3684 2.77413 23.1224 3.84587 23.3872 5.24358C23.5528 6.10295 23.5491 5.90046 23.5638 16.1339L23.5822 25.9228L23.4424 25.9574C23.2291 26.0117 21.9197 25.9426 21.4231 25.8537C19.8157 25.5672 18.4107 24.7918 17.2851 23.5719C16.8953 23.1471 16.2442 22.2334 15.9352 21.6803C15.1886 20.3468 14.5927 18.6873 14.1991 16.8599C13.8129 15.072 13.6327 13.4422 13.5702 11.2147C13.5187 9.30831 13.3826 8.14766 13.0552 6.81416C12.143 3.08528 10.006 0.768929 6.90162 0.141685C6.39403 0.0379715 5.07724 -0.0410538 5.02943 0.0231514Z" fill="#3D5A80"/>
</g>
<defs>
<clipPath id="clip0_13_17">
<rect width="53" height="53" fill="white"/>
</clipPath>
</defs>
</svg>
