<svg width="26" height="26" viewBox="0 0 26 26" fill="none" xmlns="http://www.w3.org/2000/svg">
<path d="M20.8342 12.3472C20.6498 12.1194 20.3156 12.0842 20.0879 12.2686L19.9033 12.418C19.6755 12.6024 19.6404 12.9365 19.8248 13.1643C19.9297 13.2938 20.0829 13.3611 20.2375 13.3611C20.3548 13.3611 20.4728 13.3224 20.5711 13.2428L20.7556 13.0934C20.9833 12.909 21.0185 12.575 20.8342 12.3472Z" fill="#635C52"/>
<path d="M19.3153 13.5767C19.1309 13.3489 18.7968 13.3137 18.5691 13.498L14.7753 16.5284C14.5475 16.7128 14.5124 17.0468 14.6968 17.2746C14.8016 17.4041 14.9549 17.4714 15.1095 17.4714C15.2267 17.4714 15.3448 17.4327 15.443 17.3532L19.2368 14.3229C19.4645 14.1385 19.4997 13.8045 19.3153 13.5767Z" fill="#635C52"/>
<path d="M22.8385 3.18311H3.16154C1.41827 3.18311 0 4.60138 0 6.34459V19.6552C0 21.3985 1.41827 22.8167 3.16154 22.8167H22.8385C24.5818 22.8167 26 21.3985 26 19.6552V6.34459C26 4.60138 24.5818 3.18311 22.8385 3.18311ZM21.3237 4.24428L12.9928 10.9783L4.66202 4.24428H21.3237ZM21.7408 21.7555H4.24491V9.36303L12.66 16.1418C12.8543 16.2983 13.1314 16.2983 13.3257 16.1418L21.7407 9.36303V21.7555H21.7408ZM24.9388 19.6552C24.9388 20.8133 23.9966 21.7554 22.8385 21.7554H22.8021V8.25422C22.8021 8.04993 22.6848 7.86382 22.5005 7.77561C22.316 7.68735 22.0976 7.71289 21.9386 7.84102L12.9928 15.0473L4.04711 7.84102C3.88796 7.71289 3.6694 7.68735 3.48522 7.77561C3.30088 7.86382 3.18363 8.04993 3.18363 8.25422V21.7554H3.16149C2.00342 21.7555 1.06123 20.8133 1.06123 19.6552V6.34459C1.06123 5.2464 1.90866 4.3429 2.98386 4.25241L12.6593 12.0733C12.7566 12.152 12.8747 12.1913 12.9928 12.1913C13.111 12.1913 13.2291 12.152 13.3264 12.0733L23.003 4.25134C24.0844 4.33564 24.9388 5.24193 24.9388 6.34454V19.6552Z" fill="#635C52"/>
</svg>
