<svg width="33" height="33" viewBox="0 0 33 33" fill="none" xmlns="http://www.w3.org/2000/svg">
<path d="M5.15625 24.2964C5.15625 25.1168 5.82654 25.7814 6.6524 25.7814H6.6739C5.8354 25.7814 5.15625 25.1168 5.15625 24.2964Z" fill="#FBBC05"/>
<path d="M18.0137 12.7875V16.6646L23.2407 12.4484V8.70374C23.2407 7.88329 22.5703 7.21875 21.7445 7.21875H10.4203L10.4102 12.7875H18.0137Z" fill="#FBBC05"/>
<path d="M18.0129 20.5431H10.3969L10.388 25.7814H21.7439C22.571 25.7814 23.24 25.1169 23.24 24.2964V20.9156L18.0129 16.666V20.5431Z" fill="#34A853"/>
<path d="M10.42 7.21875L5.15625 12.7875H10.4111L10.42 7.21875Z" fill="#EA4335"/>
<path d="M5.15625 20.543V24.2963C5.15625 25.1168 5.8354 25.7813 6.6739 25.7813H10.3884L10.3972 20.543H5.15625Z" fill="#1967D2"/>
<path d="M10.4111 12.7876H5.15625V20.543H10.3972L10.4111 12.7876Z" fill="#4285F4"/>
<path d="M27.8361 22.9759V10.2297C27.5414 8.5381 25.6861 10.4772 25.6861 10.4772L23.2414 12.4486V20.9142L26.7408 23.7592C28.0043 23.9251 27.8361 22.9759 27.8361 22.9759Z" fill="#34A853"/>
<path d="M18.0137 16.6645L23.242 20.9153V12.4497L18.0137 16.6645Z" fill="#188038"/>
</svg>
