<svg width="798" height="1002" viewBox="0 0 798 1002" fill="none" xmlns="http://www.w3.org/2000/svg">
<path d="M477.744 457.87C477.744 457.87 518.564 476.814 518.504 516.844C518.444 556.874 477.567 575.695 477.567 575.695C477.567 575.695 436.747 556.752 436.807 516.722C436.867 476.692 477.744 457.87 477.744 457.87ZM466.09 216.916C466.09 216.916 506.91 235.859 506.85 275.89C506.79 315.92 465.913 334.741 465.913 334.741C465.913 334.741 425.093 315.798 425.153 275.767C425.213 235.737 466.09 216.916 466.09 216.916ZM564.394 359.813C564.394 359.813 523.573 340.869 523.633 300.839C523.693 260.809 564.57 241.988 564.57 241.988C564.57 241.988 605.39 260.931 605.33 300.961C605.27 340.992 564.394 359.813 564.394 359.813ZM526.131 237.399C526.131 237.399 485.31 218.456 485.37 178.425C485.43 138.395 526.307 119.574 526.307 119.574C526.307 119.574 567.127 138.517 567.067 178.548C567.008 218.578 526.131 237.399 526.131 237.399ZM435.06 77.8968C435.06 77.8968 475.881 96.8401 475.821 136.87C475.761 176.9 434.884 195.721 434.884 195.721C434.884 195.721 394.063 176.778 394.123 136.748C394.184 95.9626 435.06 77.8968 435.06 77.8968ZM224.168 238.458C224.168 238.458 183.348 219.515 183.408 179.484C183.468 139.454 224.345 120.633 224.345 120.633C224.345 120.633 265.165 139.576 265.105 179.607C265.045 219.637 224.168 238.458 224.168 238.458ZM305.778 297.492C305.718 337.522 264.841 356.344 264.841 356.344C264.841 356.344 224.021 337.4 224.08 297.37C224.14 257.34 265.017 238.519 265.017 238.519C265.017 238.519 305.838 257.462 305.778 297.492ZM609.868 479.971C609.868 479.971 629.95 441.482 672.4 441.545C714.851 441.609 734.817 480.158 734.817 480.158C734.817 480.158 714.736 518.648 672.285 518.584C629.835 518.521 609.868 479.971 609.868 479.971ZM77.3735 385.519C119.824 385.583 139.79 424.132 139.79 424.132C139.79 424.132 119.709 462.622 77.2583 462.559C34.8077 462.495 14.8415 423.946 14.8415 423.946C14.8415 423.946 34.9229 385.456 77.3735 385.519ZM257.453 476.423C257.453 476.423 237.371 514.913 194.921 514.85C152.47 514.786 132.504 476.236 132.504 476.236C132.504 476.236 152.585 437.747 195.036 437.81C237.487 437.874 257.453 476.423 257.453 476.423ZM457.069 357.386C457.069 357.386 500.342 343.1 529.934 371.846C560.328 400.592 545.05 440.6 545.05 440.599C545.05 440.599 501.777 454.885 472.184 426.14C441.79 398.149 457.069 357.386 457.069 357.386ZM114.459 223.943C114.459 223.943 157.732 209.658 187.325 238.403C217.718 267.149 202.44 307.157 202.44 307.157C202.44 307.157 159.167 321.442 129.574 292.697C99.1811 263.951 114.459 223.943 114.459 223.943ZM139.127 331.986C139.127 331.986 182.4 317.701 211.993 346.446C242.386 375.192 227.108 415.2 227.108 415.2C227.108 415.2 183.835 429.485 154.243 400.74C123.848 372.749 139.127 331.986 139.127 331.986ZM601.775 535.851C601.775 535.851 645.048 521.565 674.641 550.31C705.034 579.056 689.756 619.064 689.756 619.064C689.756 619.064 646.483 633.35 616.891 604.604C586.496 576.613 601.775 535.851 601.775 535.851ZM81.6923 175.556C51.2989 146.809 66.5769 106.802 66.5769 106.802C66.5769 106.802 109.85 92.5163 139.442 121.262C169.836 150.008 154.558 190.015 154.558 190.015C154.558 190.015 112.086 204.302 81.6923 175.556ZM115.058 359.141C115.058 359.141 71.785 373.427 42.1926 344.681C11.7992 315.935 27.0772 275.928 27.0772 275.928C27.0772 275.928 70.3502 261.642 99.9426 290.387C130.336 319.133 115.058 359.141 115.058 359.141ZM318.277 508.992C318.277 508.992 333.434 549.8 302.956 577.7C272.477 606.355 230.048 591.941 230.048 591.941C230.048 591.941 214.89 551.133 245.368 523.233C275.848 494.578 318.277 508.992 318.277 508.992ZM669.341 344.864C669.341 344.864 684.498 385.672 654.02 413.572C623.541 442.227 581.112 427.814 581.112 427.814C581.112 427.814 565.955 387.005 596.433 359.105C626.111 330.449 669.341 344.864 669.341 344.864ZM690.852 421.935C690.852 421.935 675.695 381.127 706.173 353.227C736.652 324.572 779.081 338.986 779.081 338.986C779.081 338.986 794.238 379.794 763.76 407.694C733.282 435.594 690.852 421.935 690.852 421.935ZM622.923 319.87C622.923 319.87 607.766 279.062 638.244 251.162C668.723 222.506 711.152 236.92 711.152 236.92C711.152 236.92 726.309 277.728 695.831 305.628C666.153 334.285 622.923 319.87 622.923 319.87ZM202.099 535.253C202.099 535.253 217.256 576.061 186.778 603.961C156.299 632.617 113.87 618.203 113.87 618.203C113.87 618.203 98.7125 577.395 129.191 549.494C158.868 521.593 202.099 535.253 202.099 535.253ZM336.324 224.275C366.803 195.62 409.232 210.034 409.232 210.034C409.232 210.034 424.389 250.842 393.911 278.742C363.432 307.397 321.003 292.983 321.003 292.983C321.003 292.983 305.844 252.93 336.324 224.275ZM286.689 207.585C286.689 207.585 271.532 166.776 302.01 138.876C332.489 110.221 374.918 124.635 374.918 124.635C374.918 124.635 390.076 165.443 359.598 193.343C329.919 222 286.689 207.585 286.689 207.585ZM584.85 606.067C584.85 606.067 625.671 625.01 625.611 665.04C625.551 705.071 584.674 723.892 584.674 723.892C584.674 723.892 543.854 704.948 543.913 664.918C543.973 624.888 584.85 606.067 584.85 606.067Z" fill="#E5D0AC"/>
<path d="M264.009 376.735C280.836 372.229 288.781 415.292 303.173 432.685C315.965 447.81 333.589 446.326 356.818 445.605C358.482 404.067 360.135 369.326 361.771 346.67C363.405 325.524 369.023 317.98 385.843 318.005C402.663 318.03 409.058 326.348 409.828 346.742C412.957 397.351 415.997 506.872 419.834 618.66C458.282 617.207 503.158 602.168 529.636 571.241C556.916 539.56 567.47 445.165 583.483 448.965C599.498 452.01 595.331 560.01 556.817 606.025C526.326 642.233 479.83 669.354 420.556 671.531C424.346 815.042 427.351 947.977 427.351 947.977L341.649 947.849C341.649 947.849 348.466 674.445 355.152 487.899C317.51 486.332 296.695 479.503 281.502 462.864C263.908 444.711 247.182 381.997 264.009 376.735Z" fill="#230F00"/>
</svg>
