<svg width="27" height="28" viewBox="0 0 27 28" fill="none" xmlns="http://www.w3.org/2000/svg">
<g clip-path="url(#clip0_113_19)">
<path fill-rule="evenodd" clip-rule="evenodd" d="M21.1364 19.3194C20.8193 20.2168 19.559 20.9593 18.5539 21.1765C17.8658 21.3225 16.9686 21.4381 13.9454 20.1853C10.5499 18.7785 5.83487 13.7675 5.83487 10.4328C5.83487 8.73517 6.81365 6.75841 8.52522 6.75841C9.34878 6.75841 9.53033 6.77447 9.80134 7.42455C10.1184 8.19045 10.892 10.0775 10.984 10.2709C11.3642 11.0644 10.5973 11.529 10.0408 12.2199C9.86316 12.4278 9.66189 12.6526 9.88685 13.0395C10.1105 13.4185 10.8841 14.6793 12.0207 15.6912C13.4889 16.9993 14.6795 17.4169 15.1057 17.5946C15.4228 17.7262 15.8017 17.6955 16.0332 17.4481C16.3266 17.131 16.691 16.6048 17.062 16.0863C17.3238 15.7152 17.6567 15.6688 18.0053 15.8004C18.2408 15.882 21.2337 17.272 21.36 17.4944C21.4534 17.6562 21.4534 18.4219 21.1364 19.3194ZM13.481 0.741943H13.4744C6.22164 0.741943 0.322586 6.64278 0.322586 13.8977C0.322586 16.7745 1.25008 19.4433 2.82746 21.6081L1.18824 26.4966L6.24402 24.881C8.32395 26.2575 10.8064 27.0535 13.481 27.0535C20.7338 27.0535 26.6342 21.1527 26.6342 13.8977C26.6342 6.64278 20.7338 0.741943 13.481 0.741943Z" fill="#325139"/>
</g>
<defs>
<clipPath id="clip0_113_19">
<rect width="26.3116" height="26.3116" fill="white" transform="translate(0.322586 0.741943)"/>
</clipPath>
</defs>
</svg>
