<svg width="30" height="30" viewBox="0 0 30 30" fill="none" xmlns="http://www.w3.org/2000/svg">
<path d="M1.875 10.875C1.875 7.72471 1.875 6.14956 2.48809 4.94631C3.02737 3.88789 3.88789 3.02737 4.94631 2.48809C6.14956 1.875 7.72471 1.875 10.875 1.875H19.125C22.2753 1.875 23.8505 1.875 25.0537 2.48809C26.1121 3.02737 26.9726 3.88789 27.5119 4.94631C28.125 6.14956 28.125 7.72471 28.125 10.875V19.125C28.125 22.2753 28.125 23.8505 27.5119 25.0537C26.9726 26.1121 26.1121 26.9726 25.0537 27.5119C23.8505 28.125 22.2753 28.125 19.125 28.125H10.875C7.72471 28.125 6.14956 28.125 4.94631 27.5119C3.88789 26.9726 3.02737 26.1121 2.48809 25.0537C1.875 23.8505 1.875 22.2753 1.875 19.125V10.875Z" fill="#4087FC"/>
<path d="M7.75 9.375C7.09417 9.375 6.5625 9.97463 6.5625 10.7143V17.2098C6.5625 19.0959 7.91824 20.625 9.59062 20.625L16.625 20.5581C17.2808 20.5581 17.8125 19.9584 17.8125 19.2188V12.6562C17.8125 10.7701 16.2037 9.375 14.5312 9.375H7.75Z" fill="white"/>
<path d="M19.4177 11.9322C18.9934 12.3519 18.75 12.9574 18.75 13.5939V16.312C18.75 16.9484 18.9934 17.5541 19.4177 17.9736L22.0582 20.2993C22.5955 20.8305 23.4375 20.4002 23.4375 19.5943V10.4394C23.4375 9.63341 22.5955 9.20313 22.0582 9.73437L19.4177 11.9322Z" fill="white"/>
</svg>
